<svg xmlns="http://www.w3.org/2000/svg" width="32" height="32" fill="#d4af37" class="bi bi-shield-lock" viewBox="0 0 16 16">
  <path d="M5.338 1.59a6.1 6.1 0 0 0-2.837.856.48.48 0 0 0-.233.368c-.029.285-.204 2.088.606 3.98.808 1.902 2.16 3.515 3.927 4.976a.33.33 0 0 0 .4 0c1.766-1.461 3.119-3.074 3.927-4.976.81-1.892.635-3.695.606-3.98a.48.48 0 0 0-.233-.368 6.1 6.1 0 0 0-2.837-.856L8 1.41zM8 0c.69 0 1.356.115 1.972.326a7.1 7.1 0 0 1 3.391 1.126c.31.205.474.56.517.925.04.34.253 2.503-.706 4.757-.93 2.19-2.52 4.103-4.595 5.813a.83.83 0 0 1-1.159 0C5.341 11.31 3.75 9.398 2.82 7.208c-.959-2.254-.746-4.417-.706-4.757.043-.365.207-.72.518-.925a7.1 7.1 0 0 1 3.39-1.126C6.645.115 7.31 0 8 0"/>
  <path d="M8 4.5a1.5 1.5 0 0 1 1.133 2.482l.453 1.134a.5.5 0 0 1-.466.684H6.88a.5.5 0 0 1-.466-.684l.453-1.134A1.5 1.5 0 0 1 8 4.5m-.5 1.5a.5.5 0 1 0 1 0 .5.5 0 0 0-1 0"/>
</svg>
